<svg xmlns="http://www.w3.org/2000/svg" xmlns:xlink="http://www.w3.org/1999/xlink" width="1170" height="819.85"><rect width="1170" height="819.85" rx="5" ry="5" class="a"/><svg y="0%" x="0%"><circle cx="20" cy="20" r="6" fill="#ff5f58"/><circle cx="40" cy="20" r="6" fill="#ffbd2e"/><circle cx="60" cy="20" r="6" fill="#18c132"/></svg><svg height="759.85" viewBox="0 0 113 75.985" width="1130" x="15" xmlns="http://www.w3.org/2000/svg" xmlns:xlink="http://www.w3.org/1999/xlink" y="50"><style>@keyframes r{0%{transform:translateX(0)}2.08%{transform:translateX(-113px)}2.09%{transform:translateX(-226px)}2.15%{transform:translateX(-452px)}20.35%{transform:translateX(-565px)}20.36%{transform:translateX(-678px)}20.89%{transform:translateX(-791px)}21.66%{transform:translateX(-1130px)}24.76%{transform:translateX(-1356px)}25.47%{transform:translateX(-1582px)}26.31%{transform:translateX(-1695px)}26.71%{transform:translateX(-1808px)}27.04%{transform:translateX(-1921px)}27.74%{transform:translateX(-2034px)}28.11%{transform:translateX(-2147px)}30.15%{transform:translateX(-2260px)}32.83%{transform:translateX(-2373px)}33.86%{transform:translateX(-2486px)}34.3%{transform:translateX(-2599px)}34.79%{transform:translateX(-2712px)}35.15%{transform:translateX(-2825px)}35.54%{transform:translateX(-2938px)}36.43%{transform:translateX(-3051px)}37.21%{transform:translateX(-3164px)}37.77%{transform:translateX(-3277px)}38.16%{transform:translateX(-3390px)}38.61%{transform:translateX(-3503px)}39.27%{transform:translateX(-3616px)}40.66%{transform:translateX(-3842px)}40.67%{transform:translateX(-4068px)}47.67%{transform:translateX(-4294px)}51.48%{transform:translateX(-4520px)}51.49%{transform:translateX(-4859px)}51.51%{transform:translateX(-4972px)}53.82%{transform:translateX(-5085px)}53.83%{transform:translateX(-5424px)}53.84%{transform:translateX(-5650px)}53.85%{transform:translateX(-5763px)}59.29%{transform:translateX(-5989px)}59.3%{transform:translateX(-6102px)}59.31%{transform:translateX(-6328px)}63.28%{transform:translateX(-7006px)}67.4%{transform:translateX(-7458px)}67.41%{transform:translateX(-7684px)}71.21%{transform:translateX(-7910px)}71.22%{transform:translateX(-8136px)}75%{transform:translateX(-8475px)}79.61%{transform:translateX(-9040px)}85.2%{transform:translateX(-9266px)}85.21%{transform:translateX(-9379px)}85.22%{transform:translateX(-9492px)}85.26%{transform:translateX(-9718px)}85.37%{transform:translateX(-9831px)}85.38%{transform:translateX(-10057px)}to{transform:translateX(-10170px)}}.a{fill:#282d35}.f,.g{fill:#b9c0cb;white-space:pre}.g{fill:#a8cc8c}.h{fill:#66c2cd;font-weight:700}.h,.i,.j,.k{white-space:pre}.i{fill:#a8cc8c;font-weight:700}.j,.k{fill:#005fd7}.k{fill:#555}.l{fill:#00afff}.l,.m,.n,.t{white-space:pre}.m{fill:#b9c0cb;font-weight:700}.n,.t{fill:#66c2cd}.t{fill:red}</style><g font-family="Monaco,Consolas,Menlo,'Bitstream Vera Sans Mono','Powerline Symbols',monospace" font-size="1.67"><defs><symbol id="1"><text y="1.67" class="f">Welcome</text><text x="8.016" y="1.67" class="f">to</text><text x="11.022" y="1.67" class="f">fish,</text><text x="17.034" y="1.67" class="f">the</text><text x="21.042" y="1.67" class="f">friendly</text><text x="30.06" y="1.67" class="f">interactive</text><text x="42.084" y="1.67" class="f">shell</text></symbol><symbol id="2"><text y="1.67" class="f">Type</text><text x="5.01" y="1.67" class="g">help</text><text x="10.02" y="1.67" class="f">for</text><text x="14.028" y="1.67" class="f">instructions</text><text x="27.054" y="1.67" class="f">on</text><text x="30.06" y="1.67" class="f">how</text><text x="34.068" y="1.67" class="f">to</text><text x="37.074" y="1.67" class="f">use</text><text x="41.082" y="1.67" class="f">fish</text></symbol><symbol id="3"><text y="1.67" class="h">~/create-editorconfig</text></symbol><symbol id="4"><text y="1.67" class="i">❯</text></symbol><symbol id="5"><text y="1.67" class="i">❯</text><text x="2.004" y="1.67" class="j">npx</text><text x="6.012" y="1.67" class="k">create-editorconfig</text></symbol><symbol id="6"><text y="1.67" class="i">❯</text><text x="2.004" y="1.67" class="j">npx</text><text x="6.012" y="1.67" class="l">create-editorconfig</text></symbol><symbol id="7"><text y="1.67" class="g">?</text><text x="2.004" y="1.67" class="m">Is</text><text x="5.01" y="1.67" class="m">this</text><text x="10.02" y="1.67" class="m">is</text><text x="13.026" y="1.67" class="m">the</text><text x="17.034" y="1.67" class="m">root</text><text x="22.044" y="1.67" class="m">directory?</text><text x="33.066" y="1.67" class="f">(Y/n)</text></symbol><symbol id="8"><text y="1.67" class="g">?</text><text x="2.004" y="1.67" class="m">Is</text><text x="5.01" y="1.67" class="m">this</text><text x="10.02" y="1.67" class="m">is</text><text x="13.026" y="1.67" class="m">the</text><text x="17.034" y="1.67" class="m">root</text><text x="22.044" y="1.67" class="m">directory?</text><text x="33.066" y="1.67" class="n">Yes</text></symbol><symbol id="9"><text y="1.67" class="g">?</text><text x="2.004" y="1.67" class="m">Files</text><text x="8.016" y="1.67" class="m">to</text><text x="11.022" y="1.67" class="m">apply</text><text x="17.034" y="1.67" class="m">those</text><text x="23.046" y="1.67" class="m">rules:</text><text x="30.06" y="1.67" class="n">*</text></symbol><symbol id="10"><text y="1.67" class="g">?</text><text x="2.004" y="1.67" class="m">Charset:</text><text x="11.022" y="1.67" class="f">(Use</text><text x="16.032" y="1.67" class="f">arrow</text><text x="22.044" y="1.67" class="f">keys)</text></symbol><symbol id="11"><text x="2.004" y="1.67" class="f">latin1</text></symbol><symbol id="12"><text y="1.67" class="n">❯</text><text x="2.004" y="1.67" class="n">utf-8</text></symbol><symbol id="13"><text x="2.004" y="1.67" class="f">utf-8-bom</text></symbol><symbol id="14"><text x="2.004" y="1.67" class="f">utf-16be</text></symbol><symbol id="15"><text x="2.004" y="1.67" class="f">utf-16le</text></symbol><symbol id="16"><text y="1.67" class="g">?</text><text x="2.004" y="1.67" class="m">Charset:</text><text x="11.022" y="1.67" class="n">utf-8</text></symbol><symbol id="17"><text y="1.67" class="g">?</text><text x="2.004" y="1.67" class="m">End</text><text x="6.012" y="1.67" class="m">of</text><text x="9.018" y="1.67" class="m">line:</text><text x="15.03" y="1.67" class="f">(Use</text><text x="20.04" y="1.67" class="f">arrow</text><text x="26.052" y="1.67" class="f">keys)</text></symbol><symbol id="18"><text x="2.004" y="1.67" class="f">cr</text></symbol><symbol id="19"><text x="2.004" y="1.67" class="f">crlf</text></symbol><symbol id="20"><text y="1.67" class="n">❯</text><text x="2.004" y="1.67" class="n">lf</text></symbol><symbol id="21"><text y="1.67" class="g">?</text><text x="2.004" y="1.67" class="m">End</text><text x="6.012" y="1.67" class="m">of</text><text x="9.018" y="1.67" class="m">line:</text><text x="15.03" y="1.67" class="n">lf</text></symbol><symbol id="22"><text y="1.67" class="g">?</text><text x="2.004" y="1.67" class="m">Insert</text><text x="9.018" y="1.67" class="m">final</text><text x="15.03" y="1.67" class="m">newline:</text><text x="24.048" y="1.67" class="f">(Y/n)</text></symbol><symbol id="23"><text y="1.67" class="g">?</text><text x="2.004" y="1.67" class="m">Insert</text><text x="9.018" y="1.67" class="m">final</text><text x="15.03" y="1.67" class="m">newline:</text><text x="24.048" y="1.67" class="n">Yes</text></symbol><symbol id="24"><text y="1.67" class="g">?</text><text x="2.004" y="1.67" class="m">Indent</text><text x="9.018" y="1.67" class="m">style:</text><text x="16.032" y="1.67" class="f">(Use</text><text x="21.042" y="1.67" class="f">arrow</text><text x="27.054" y="1.67" class="f">keys)</text></symbol><symbol id="25"><text y="1.67" class="n">❯</text><text x="2.004" y="1.67" class="n">space</text></symbol><symbol id="26"><text x="2.004" y="1.67" class="f">tab</text></symbol><symbol id="27"><text y="1.67" class="g">?</text><text x="2.004" y="1.67" class="m">Indent</text><text x="9.018" y="1.67" class="m">style:</text><text x="16.032" y="1.67" class="n">space</text></symbol><symbol id="28"><text y="1.67" class="g">?</text><text x="2.004" y="1.67" class="m">Indent</text><text x="9.018" y="1.67" class="m">size:</text><text x="15.03" y="1.67" class="f">(2)</text></symbol><symbol id="29"><text y="1.67" class="g">?</text><text x="2.004" y="1.67" class="m">Indent</text><text x="9.018" y="1.67" class="m">size:</text><text x="15.03" y="1.67" class="n">2</text></symbol><symbol id="30"><text y="1.67" class="g">?</text><text x="2.004" y="1.67" class="m">Trim</text><text x="7.014" y="1.67" class="m">trailing</text><text x="16.032" y="1.67" class="m">whitespace:</text><text x="28.056" y="1.67" class="n">Yes</text></symbol><symbol id="31"><text y="1.67" class="g">?</text><text x="2.004" y="1.67" class="m">Do</text><text x="5.01" y="1.67" class="m">want</text><text x="10.02" y="1.67" class="m">add</text><text x="14.028" y="1.67" class="m">different</text><text x="24.048" y="1.67" class="m">rules</text><text x="30.06" y="1.67" class="m">for</text><text x="34.068" y="1.67" class="m">another</text><text x="42.084" y="1.67" class="m">set</text><text x="46.092" y="1.67" class="m">of</text><text x="49.098" y="1.67" class="m">files?</text><text x="56.112" y="1.67" class="f">(y/N)</text></symbol><symbol id="32"><text y="1.67" class="g">?</text><text x="2.004" y="1.67" class="m">Do</text><text x="5.01" y="1.67" class="m">want</text><text x="10.02" y="1.67" class="m">add</text><text x="14.028" y="1.67" class="m">different</text><text x="24.048" y="1.67" class="m">rules</text><text x="30.06" y="1.67" class="m">for</text><text x="34.068" y="1.67" class="m">another</text><text x="42.084" y="1.67" class="m">set</text><text x="46.092" y="1.67" class="m">of</text><text x="49.098" y="1.67" class="m">files?</text><text x="56.112" y="1.67" class="n">No</text></symbol><symbol id="33"><text y="1.67" class="f">.editorconfig</text><text x="14.028" y="1.67" class="f">created.</text><text x="23.046" y="1.67" class="f">Enjoy</text><text x="29.058" y="1.67" class="f">:)</text></symbol><symbol id="34"><text y="1.67" class="h">~/create-editorconfig</text><text x="22.044" y="1.67" class="f">took</text><text x="27.054" y="1.67" style="white-space:pre" fill="#dbab79" font-weight="700">12s</text></symbol><symbol id="a"><path fill="transparent" d="M0 0h113v35H0z"/></symbol><symbol id="b"><path fill="#6f7683" d="M0 0h1.102v2.171H0z"/></symbol></defs><path class="a" d="M0 0h113v75.985H0z"/><g style="animation-duration:27.40752s;animation-iteration-count:infinite;animation-name:r;animation-timing-function:steps(1,end)"><svg width="10283"><svg><use xlink:href="#a"/><use xlink:href="#b" x="-.004"/></svg><svg x="113"><use xlink:href="#a"/><use xlink:href="#b" x="-.004" y="4.317"/><use xlink:href="#1"/><use xlink:href="#2" y="2.171"/></svg><svg x="226"><use xlink:href="#a"/><use xlink:href="#b" x="-.004" y="4.317"/><use xlink:href="#1"/><use xlink:href="#2" y="2.171"/></svg><svg x="339"><use xlink:href="#a"/><use xlink:href="#b" x="-.004" y="4.317"/><use xlink:href="#1"/><use xlink:href="#2" y="2.171"/></svg><svg x="452"><use xlink:href="#a"/><use xlink:href="#b" x="1.996" y="8.659"/><use xlink:href="#1"/><use xlink:href="#2" y="2.171"/><use xlink:href="#3" y="6.513"/><use xlink:href="#4" y="8.684"/></svg><svg x="565"><use xlink:href="#a"/><use xlink:href="#b" x="2.996" y="8.659"/><use xlink:href="#1"/><use xlink:href="#2" y="2.171"/><use xlink:href="#3" y="6.513"/><text y="10.354" class="i">❯</text><text x="2.004" y="10.354" class="f">n</text></svg><svg x="678"><use xlink:href="#a"/><use xlink:href="#b" x="2.996" y="8.659"/><use xlink:href="#1"/><use xlink:href="#2" y="2.171"/><use xlink:href="#3" y="6.513"/><text y="10.354" class="i">❯</text><text x="2.004" y="10.354" class="t">n</text><text x="3.006" y="10.354" class="k">pm</text><text x="6.012" y="10.354" class="k">install</text><text x="14.028" y="10.354" class="k">-g</text><text x="17.034" y="10.354" class="k">svg-term-cli</text></svg><svg x="791"><use xlink:href="#a"/><use xlink:href="#b" x="3.996" y="8.659"/><use xlink:href="#1"/><use xlink:href="#2" y="2.171"/><use xlink:href="#3" y="6.513"/><text y="10.354" class="i">❯</text><text x="2.004" y="10.354" class="t">np</text><text x="4.008" y="10.354" class="k">m</text><text x="6.012" y="10.354" class="k">install</text><text x="14.028" y="10.354" class="k">-g</text><text x="17.034" y="10.354" class="k">svg-term-cli</text></svg><svg x="904"><use xlink:href="#a"/><use xlink:href="#b" x="4.996" y="8.659"/><use xlink:href="#1"/><use xlink:href="#2" y="2.171"/><use xlink:href="#3" y="6.513"/><text y="10.354" class="i">❯</text><text x="2.004" y="10.354" class="t">npx</text></svg><svg x="1017"><use xlink:href="#a"/><use xlink:href="#b" x="4.996" y="8.659"/><use xlink:href="#1"/><use xlink:href="#2" y="2.171"/><use xlink:href="#3" y="6.513"/><text y="10.354" class="i">❯</text><text x="2.004" y="10.354" class="t">npx</text><text x="6.012" y="10.354" class="k">create-editorconfig</text></svg><svg x="1130"><use xlink:href="#a"/><use xlink:href="#b" x="4.996" y="8.659"/><use xlink:href="#1"/><use xlink:href="#2" y="2.171"/><use xlink:href="#3" y="6.513"/><use xlink:href="#5" y="8.684"/></svg><svg x="1243"><use xlink:href="#a"/><use xlink:href="#b" x="5.996" y="8.659"/><use xlink:href="#1"/><use xlink:href="#2" y="2.171"/><use xlink:href="#3" y="6.513"/><use xlink:href="#5" y="8.684"/></svg><svg x="1356"><use xlink:href="#a"/><use xlink:href="#b" x="5.996" y="8.659"/><use xlink:href="#1"/><use xlink:href="#2" y="2.171"/><use xlink:href="#3" y="6.513"/><use xlink:href="#5" y="8.684"/></svg><svg x="1469"><use xlink:href="#a"/><use xlink:href="#b" x="6.996" y="8.659"/><use xlink:href="#1"/><use xlink:href="#2" y="2.171"/><use xlink:href="#3" y="6.513"/><text y="10.354" class="i">❯</text><text x="2.004" y="10.354" class="j">npx</text><text x="6.012" y="10.354" class="f">c</text><text x="7.014" y="10.354" class="k">reate-editorconfig</text></svg><svg x="1582"><use xlink:href="#a"/><use xlink:href="#b" x="6.996" y="8.659"/><use xlink:href="#1"/><use xlink:href="#2" y="2.171"/><use xlink:href="#3" y="6.513"/><text y="10.354" class="i">❯</text><text x="2.004" y="10.354" class="j">npx</text><text x="6.012" y="10.354" class="l">c</text><text x="7.014" y="10.354" class="k">reate-editorconfig</text></svg><svg x="1695"><use xlink:href="#a"/><use xlink:href="#b" x="7.996" y="8.659"/><use xlink:href="#1"/><use xlink:href="#2" y="2.171"/><use xlink:href="#3" y="6.513"/><text y="10.354" class="i">❯</text><text x="2.004" y="10.354" class="j">npx</text><text x="6.012" y="10.354" class="l">cr</text><text x="8.016" y="10.354" class="k">eate-editorconfig</text></svg><svg x="1808"><use xlink:href="#a"/><use xlink:href="#b" x="8.996" y="8.659"/><use xlink:href="#1"/><use xlink:href="#2" y="2.171"/><use xlink:href="#3" y="6.513"/><text y="10.354" class="i">❯</text><text x="2.004" y="10.354" class="j">npx</text><text x="6.012" y="10.354" class="l">cre</text><text x="9.018" y="10.354" class="k">ate-editorconfig</text></svg><svg x="1921"><use xlink:href="#a"/><use xlink:href="#b" x="9.996" y="8.659"/><use xlink:href="#1"/><use xlink:href="#2" y="2.171"/><use xlink:href="#3" y="6.513"/><text y="10.354" class="i">❯</text><text x="2.004" y="10.354" class="j">npx</text><text x="6.012" y="10.354" class="l">crea</text><text x="10.02" y="10.354" class="k">te-editorconfig</text></svg><svg x="2034"><use xlink:href="#a"/><use xlink:href="#b" x="10.996" y="8.659"/><use xlink:href="#1"/><use xlink:href="#2" y="2.171"/><use xlink:href="#3" y="6.513"/><text y="10.354" class="i">❯</text><text x="2.004" y="10.354" class="j">npx</text><text x="6.012" y="10.354" class="l">creat</text><text x="11.022" y="10.354" class="k">e-editorconfig</text></svg><svg x="2147"><use xlink:href="#a"/><use xlink:href="#b" x="11.996" y="8.659"/><use xlink:href="#1"/><use xlink:href="#2" y="2.171"/><use xlink:href="#3" y="6.513"/><text y="10.354" class="i">❯</text><text x="2.004" y="10.354" class="j">npx</text><text x="6.012" y="10.354" class="l">create</text><text x="12.024" y="10.354" class="k">-editorconfig</text></svg><svg x="2260"><use xlink:href="#a"/><use xlink:href="#b" x="12.996" y="8.659"/><use xlink:href="#1"/><use xlink:href="#2" y="2.171"/><use xlink:href="#3" y="6.513"/><text y="10.354" class="i">❯</text><text x="2.004" y="10.354" class="j">npx</text><text x="6.012" y="10.354" class="l">create-</text><text x="13.026" y="10.354" class="k">editorconfig</text></svg><svg x="2373"><use xlink:href="#a"/><use xlink:href="#b" x="13.996" y="8.659"/><use xlink:href="#1"/><use xlink:href="#2" y="2.171"/><use xlink:href="#3" y="6.513"/><text y="10.354" class="i">❯</text><text x="2.004" y="10.354" class="j">npx</text><text x="6.012" y="10.354" class="l">create-e</text><text x="14.028" y="10.354" class="k">ditorconfig</text></svg><svg x="2486"><use xlink:href="#a"/><use xlink:href="#b" x="14.996" y="8.659"/><use xlink:href="#1"/><use xlink:href="#2" y="2.171"/><use xlink:href="#3" y="6.513"/><text y="10.354" class="i">❯</text><text x="2.004" y="10.354" class="j">npx</text><text x="6.012" y="10.354" class="l">create-ed</text><text x="15.03" y="10.354" class="k">itorconfig</text></svg><svg x="2599"><use xlink:href="#a"/><use xlink:href="#b" x="15.996" y="8.659"/><use xlink:href="#1"/><use xlink:href="#2" y="2.171"/><use xlink:href="#3" y="6.513"/><text y="10.354" class="i">❯</text><text x="2.004" y="10.354" class="j">npx</text><text x="6.012" y="10.354" class="l">create-edi</text><text x="16.032" y="10.354" class="k">torconfig</text></svg><svg x="2712"><use xlink:href="#a"/><use xlink:href="#b" x="16.996" y="8.659"/><use xlink:href="#1"/><use xlink:href="#2" y="2.171"/><use xlink:href="#3" y="6.513"/><text y="10.354" class="i">❯</text><text x="2.004" y="10.354" class="j">npx</text><text x="6.012" y="10.354" class="l">create-edit</text><text x="17.034" y="10.354" class="k">orconfig</text></svg><svg x="2825"><use xlink:href="#a"/><use xlink:href="#b" x="17.996" y="8.659"/><use xlink:href="#1"/><use xlink:href="#2" y="2.171"/><use xlink:href="#3" y="6.513"/><text y="10.354" class="i">❯</text><text x="2.004" y="10.354" class="j">npx</text><text x="6.012" y="10.354" class="l">create-edito</text><text x="18.036" y="10.354" class="k">rconfig</text></svg><svg x="2938"><use xlink:href="#a"/><use xlink:href="#b" x="18.996" y="8.659"/><use xlink:href="#1"/><use xlink:href="#2" y="2.171"/><use xlink:href="#3" y="6.513"/><text y="10.354" class="i">❯</text><text x="2.004" y="10.354" class="j">npx</text><text x="6.012" y="10.354" class="l">create-editor</text><text x="19.038" y="10.354" class="k">config</text></svg><svg x="3051"><use xlink:href="#a"/><use xlink:href="#b" x="19.996" y="8.659"/><use xlink:href="#1"/><use xlink:href="#2" y="2.171"/><use xlink:href="#3" y="6.513"/><text y="10.354" class="i">❯</text><text x="2.004" y="10.354" class="j">npx</text><text x="6.012" y="10.354" class="l">create-editorc</text><text x="20.04" y="10.354" class="k">onfig</text></svg><svg x="3164"><use xlink:href="#a"/><use xlink:href="#b" x="20.996" y="8.659"/><use xlink:href="#1"/><use xlink:href="#2" y="2.171"/><use xlink:href="#3" y="6.513"/><text y="10.354" class="i">❯</text><text x="2.004" y="10.354" class="j">npx</text><text x="6.012" y="10.354" class="l">create-editorco</text><text x="21.042" y="10.354" class="k">nfig</text></svg><svg x="3277"><use xlink:href="#a"/><use xlink:href="#b" x="21.996" y="8.659"/><use xlink:href="#1"/><use xlink:href="#2" y="2.171"/><use xlink:href="#3" y="6.513"/><text y="10.354" class="i">❯</text><text x="2.004" y="10.354" class="j">npx</text><text x="6.012" y="10.354" class="l">create-editorcon</text><text x="22.044" y="10.354" class="k">fig</text></svg><svg x="3390"><use xlink:href="#a"/><use xlink:href="#b" x="22.996" y="8.659"/><use xlink:href="#1"/><use xlink:href="#2" y="2.171"/><use xlink:href="#3" y="6.513"/><text y="10.354" class="i">❯</text><text x="2.004" y="10.354" class="j">npx</text><text x="6.012" y="10.354" class="l">create-editorconf</text><text x="23.046" y="10.354" class="k">ig</text></svg><svg x="3503"><use xlink:href="#a"/><use xlink:href="#b" x="23.996" y="8.659"/><use xlink:href="#1"/><use xlink:href="#2" y="2.171"/><use xlink:href="#3" y="6.513"/><text y="10.354" class="i">❯</text><text x="2.004" y="10.354" class="j">npx</text><text x="6.012" y="10.354" class="l">create-editorconfi</text><text x="24.048" y="10.354" class="k">g</text></svg><svg x="3616"><use xlink:href="#a"/><use xlink:href="#b" x="24.996" y="8.659"/><use xlink:href="#1"/><use xlink:href="#2" y="2.171"/><use xlink:href="#3" y="6.513"/><use xlink:href="#6" y="8.684"/></svg><svg x="3729"><use xlink:href="#a"/><use xlink:href="#b" x="-.004" y="10.83"/><use xlink:href="#1"/><use xlink:href="#2" y="2.171"/><use xlink:href="#3" y="6.513"/><use xlink:href="#6" y="8.684"/></svg><svg x="3842"><use xlink:href="#a"/><use xlink:href="#b" x="-.004" y="10.83"/><use xlink:href="#1"/><use xlink:href="#2" y="2.171"/><use xlink:href="#3" y="6.513"/><use xlink:href="#6" y="8.684"/></svg><svg x="3955"><use xlink:href="#a"/><use xlink:href="#b" x="-.004" y="10.83"/><use xlink:href="#1"/><use xlink:href="#2" y="2.171"/><use xlink:href="#3" y="6.513"/><use xlink:href="#6" y="8.684"/></svg><svg x="4068"><use xlink:href="#a"/><use xlink:href="#b" x="-.004" y="10.83"/><use xlink:href="#1"/><use xlink:href="#2" y="2.171"/><use xlink:href="#3" y="6.513"/><use xlink:href="#6" y="8.684"/></svg><svg x="4181"><use xlink:href="#a"/><use xlink:href="#b" x="38.996" y="10.83"/><use xlink:href="#1"/><use xlink:href="#2" y="2.171"/><use xlink:href="#3" y="6.513"/><use xlink:href="#6" y="8.684"/><use xlink:href="#7" y="10.855"/></svg><svg x="4294"><use xlink:href="#a"/><use xlink:href="#b" x="38.996" y="10.83"/><use xlink:href="#1"/><use xlink:href="#2" y="2.171"/><use xlink:href="#3" y="6.513"/><use xlink:href="#6" y="8.684"/><use xlink:href="#7" y="10.855"/></svg><svg x="4407"><use xlink:href="#a"/><use xlink:href="#b" x="-.004" y="10.83"/><use xlink:href="#1"/><use xlink:href="#2" y="2.171"/><use xlink:href="#3" y="6.513"/><use xlink:href="#6" y="8.684"/></svg><svg x="4520"><use xlink:href="#a"/><use xlink:href="#b" x="35.996" y="10.83"/><use xlink:href="#1"/><use xlink:href="#2" y="2.171"/><use xlink:href="#3" y="6.513"/><use xlink:href="#6" y="8.684"/><use xlink:href="#8" y="10.855"/></svg><svg x="4633"><use xlink:href="#a"/><use xlink:href="#b" x="-.004" y="10.83"/><use xlink:href="#1"/><use xlink:href="#2" y="2.171"/><use xlink:href="#3" y="6.513"/><use xlink:href="#6" y="8.684"/><use xlink:href="#8" y="10.855"/></svg><svg x="4746"><use xlink:href="#a"/><use xlink:href="#b" x="35.996" y="10.83"/><use xlink:href="#1"/><use xlink:href="#2" y="2.171"/><use xlink:href="#3" y="6.513"/><use xlink:href="#6" y="8.684"/><use xlink:href="#8" y="10.855"/></svg><svg x="4859"><use xlink:href="#a"/><use xlink:href="#b" x="-.004" y="13.001"/><use xlink:href="#1"/><use xlink:href="#2" y="2.171"/><use xlink:href="#3" y="6.513"/><use xlink:href="#6" y="8.684"/><use xlink:href="#8" y="10.855"/></svg><svg x="4972"><use xlink:href="#a"/><use xlink:href="#b" x="33.996" y="13.001"/><use xlink:href="#1"/><use xlink:href="#2" y="2.171"/><use xlink:href="#3" y="6.513"/><use xlink:href="#6" y="8.684"/><use xlink:href="#8" y="10.855"/><text y="14.696" class="g">?</text><text x="2.004" y="14.696" class="m">Files</text><text x="8.016" y="14.696" class="m">to</text><text x="11.022" y="14.696" class="m">apply</text><text x="17.034" y="14.696" class="m">those</text><text x="23.046" y="14.696" class="m">rules:</text><text x="30.06" y="14.696" class="f">(*)</text></svg><svg x="5085"><use xlink:href="#a"/><use xlink:href="#b" x="-.004" y="13.001"/><use xlink:href="#1"/><use xlink:href="#2" y="2.171"/><use xlink:href="#3" y="6.513"/><use xlink:href="#6" y="8.684"/><use xlink:href="#8" y="10.855"/></svg><svg x="5198"><use xlink:href="#a"/><use xlink:href="#b" x="30.996" y="13.001"/><use xlink:href="#1"/><use xlink:href="#2" y="2.171"/><use xlink:href="#3" y="6.513"/><use xlink:href="#6" y="8.684"/><use xlink:href="#8" y="10.855"/><use xlink:href="#9" y="13.026"/></svg><svg x="5311"><use xlink:href="#a"/><use xlink:href="#b" x="30.996" y="13.001"/><use xlink:href="#1"/><use xlink:href="#2" y="2.171"/><use xlink:href="#3" y="6.513"/><use xlink:href="#6" y="8.684"/><use xlink:href="#8" y="10.855"/><use xlink:href="#9" y="13.026"/></svg><svg x="5424"><use xlink:href="#a"/><use xlink:href="#b" x="-.004" y="15.172"/><use xlink:href="#1"/><use xlink:href="#2" y="2.171"/><use xlink:href="#3" y="6.513"/><use xlink:href="#6" y="8.684"/><use xlink:href="#8" y="10.855"/><use xlink:href="#9" y="13.026"/></svg><svg x="5537"><use xlink:href="#a"/><use xlink:href="#1"/><use xlink:href="#2" y="2.171"/><use xlink:href="#3" y="6.513"/><use xlink:href="#6" y="8.684"/><use xlink:href="#8" y="10.855"/><use xlink:href="#9" y="13.026"/></svg><svg x="5650"><use xlink:href="#a"/><use xlink:href="#1"/><use xlink:href="#2" y="2.171"/><use xlink:href="#3" y="6.513"/><use xlink:href="#6" y="8.684"/><use xlink:href="#8" y="10.855"/><use xlink:href="#9" y="13.026"/><use xlink:href="#10" y="15.197"/><use xlink:href="#11" y="17.368"/><use xlink:href="#12" y="19.539"/><use xlink:href="#13" y="21.71"/><use xlink:href="#14" y="23.881"/><use xlink:href="#15" y="26.052"/></svg><svg x="5763"><use xlink:href="#a"/><use xlink:href="#1"/><use xlink:href="#2" y="2.171"/><use xlink:href="#3" y="6.513"/><use xlink:href="#6" y="8.684"/><use xlink:href="#8" y="10.855"/><use xlink:href="#9" y="13.026"/><use xlink:href="#10" y="15.197"/><use xlink:href="#11" y="17.368"/><use xlink:href="#12" y="19.539"/><use xlink:href="#13" y="21.71"/><use xlink:href="#14" y="23.881"/><use xlink:href="#15" y="26.052"/></svg><svg x="5876"><use xlink:href="#a"/><use xlink:href="#1"/><use xlink:href="#2" y="2.171"/><use xlink:href="#3" y="6.513"/><use xlink:href="#6" y="8.684"/><use xlink:href="#8" y="10.855"/><use xlink:href="#9" y="13.026"/></svg><svg x="5989"><use xlink:href="#a"/><use xlink:href="#b" x="-.004" y="17.343"/><use xlink:href="#1"/><use xlink:href="#2" y="2.171"/><use xlink:href="#3" y="6.513"/><use xlink:href="#6" y="8.684"/><use xlink:href="#8" y="10.855"/><use xlink:href="#9" y="13.026"/><use xlink:href="#16" y="15.197"/></svg><svg x="6102"><use xlink:href="#a"/><use xlink:href="#1"/><use xlink:href="#2" y="2.171"/><use xlink:href="#3" y="6.513"/><use xlink:href="#6" y="8.684"/><use xlink:href="#8" y="10.855"/><use xlink:href="#9" y="13.026"/><use xlink:href="#16" y="15.197"/></svg><svg x="6215"><use xlink:href="#a"/><use xlink:href="#1"/><use xlink:href="#2" y="2.171"/><use xlink:href="#3" y="6.513"/><use xlink:href="#6" y="8.684"/><use xlink:href="#8" y="10.855"/><use xlink:href="#9" y="13.026"/><use xlink:href="#16" y="15.197"/><use xlink:href="#17" y="17.368"/><use xlink:href="#18" y="19.539"/><use xlink:href="#19" y="21.71"/><use xlink:href="#20" y="23.881"/></svg><svg x="6328"><use xlink:href="#a"/><use xlink:href="#1"/><use xlink:href="#2" y="2.171"/><use xlink:href="#3" y="6.513"/><use xlink:href="#6" y="8.684"/><use xlink:href="#8" y="10.855"/><use xlink:href="#9" y="13.026"/><use xlink:href="#16" y="15.197"/><use xlink:href="#17" y="17.368"/><use xlink:href="#18" y="19.539"/><use xlink:href="#19" y="21.71"/><use xlink:href="#20" y="23.881"/></svg><svg x="6441"><use xlink:href="#a"/><use xlink:href="#1"/><use xlink:href="#2" y="2.171"/><use xlink:href="#3" y="6.513"/><use xlink:href="#6" y="8.684"/><use xlink:href="#8" y="10.855"/><use xlink:href="#9" y="13.026"/><use xlink:href="#16" y="15.197"/></svg><svg x="6554"><use xlink:href="#a"/><use xlink:href="#1"/><use xlink:href="#2" y="2.171"/><use xlink:href="#3" y="6.513"/><use xlink:href="#6" y="8.684"/><use xlink:href="#8" y="10.855"/><use xlink:href="#9" y="13.026"/><use xlink:href="#16" y="15.197"/><use xlink:href="#21" y="17.368"/></svg><svg x="6667"><use xlink:href="#a"/><use xlink:href="#b" x="-.004" y="19.514"/><use xlink:href="#1"/><use xlink:href="#2" y="2.171"/><use xlink:href="#3" y="6.513"/><use xlink:href="#6" y="8.684"/><use xlink:href="#8" y="10.855"/><use xlink:href="#9" y="13.026"/><use xlink:href="#16" y="15.197"/><use xlink:href="#21" y="17.368"/></svg><svg x="6780"><use xlink:href="#a"/><use xlink:href="#b" x="29.996" y="19.514"/><use xlink:href="#1"/><use xlink:href="#2" y="2.171"/><use xlink:href="#3" y="6.513"/><use xlink:href="#6" y="8.684"/><use xlink:href="#8" y="10.855"/><use xlink:href="#9" y="13.026"/><use xlink:href="#16" y="15.197"/><use xlink:href="#21" y="17.368"/><use xlink:href="#22" y="19.539"/></svg><svg x="6893"><use xlink:href="#a"/><use xlink:href="#b" x="-.004" y="19.514"/><use xlink:href="#1"/><use xlink:href="#2" y="2.171"/><use xlink:href="#3" y="6.513"/><use xlink:href="#6" y="8.684"/><use xlink:href="#8" y="10.855"/><use xlink:href="#9" y="13.026"/><use xlink:href="#16" y="15.197"/><use xlink:href="#21" y="17.368"/><use xlink:href="#22" y="19.539"/></svg><svg x="7006"><use xlink:href="#a"/><use xlink:href="#b" x="29.996" y="19.514"/><use xlink:href="#1"/><use xlink:href="#2" y="2.171"/><use xlink:href="#3" y="6.513"/><use xlink:href="#6" y="8.684"/><use xlink:href="#8" y="10.855"/><use xlink:href="#9" y="13.026"/><use xlink:href="#16" y="15.197"/><use xlink:href="#21" y="17.368"/><use xlink:href="#22" y="19.539"/></svg><svg x="7119"><use xlink:href="#a"/><use xlink:href="#b" x="-.004" y="19.514"/><use xlink:href="#1"/><use xlink:href="#2" y="2.171"/><use xlink:href="#3" y="6.513"/><use xlink:href="#6" y="8.684"/><use xlink:href="#8" y="10.855"/><use xlink:href="#9" y="13.026"/><use xlink:href="#16" y="15.197"/><use xlink:href="#21" y="17.368"/></svg><svg x="7232"><use xlink:href="#a"/><use xlink:href="#b" x="26.996" y="19.514"/><use xlink:href="#1"/><use xlink:href="#2" y="2.171"/><use xlink:href="#3" y="6.513"/><use xlink:href="#6" y="8.684"/><use xlink:href="#8" y="10.855"/><use xlink:href="#9" y="13.026"/><use xlink:href="#16" y="15.197"/><use xlink:href="#21" y="17.368"/><use xlink:href="#23" y="19.539"/></svg><svg x="7345"><use xlink:href="#a"/><use xlink:href="#b" x="-.004" y="21.685"/><use xlink:href="#1"/><use xlink:href="#2" y="2.171"/><use xlink:href="#3" y="6.513"/><use xlink:href="#6" y="8.684"/><use xlink:href="#8" y="10.855"/><use xlink:href="#9" y="13.026"/><use xlink:href="#16" y="15.197"/><use xlink:href="#21" y="17.368"/><use xlink:href="#23" y="19.539"/></svg><svg x="7458"><use xlink:href="#a"/><use xlink:href="#1"/><use xlink:href="#2" y="2.171"/><use xlink:href="#3" y="6.513"/><use xlink:href="#6" y="8.684"/><use xlink:href="#8" y="10.855"/><use xlink:href="#9" y="13.026"/><use xlink:href="#16" y="15.197"/><use xlink:href="#21" y="17.368"/><use xlink:href="#23" y="19.539"/></svg><svg x="7571"><use xlink:href="#a"/><use xlink:href="#1"/><use xlink:href="#2" y="2.171"/><use xlink:href="#3" y="6.513"/><use xlink:href="#6" y="8.684"/><use xlink:href="#8" y="10.855"/><use xlink:href="#9" y="13.026"/><use xlink:href="#16" y="15.197"/><use xlink:href="#21" y="17.368"/><use xlink:href="#23" y="19.539"/><use xlink:href="#24" y="21.71"/><use xlink:href="#25" y="23.881"/><use xlink:href="#26" y="26.052"/></svg><svg x="7684"><use xlink:href="#a"/><use xlink:href="#1"/><use xlink:href="#2" y="2.171"/><use xlink:href="#3" y="6.513"/><use xlink:href="#6" y="8.684"/><use xlink:href="#8" y="10.855"/><use xlink:href="#9" y="13.026"/><use xlink:href="#16" y="15.197"/><use xlink:href="#21" y="17.368"/><use xlink:href="#23" y="19.539"/><use xlink:href="#24" y="21.71"/><use xlink:href="#25" y="23.881"/><use xlink:href="#26" y="26.052"/></svg><svg x="7797"><use xlink:href="#a"/><use xlink:href="#1"/><use xlink:href="#2" y="2.171"/><use xlink:href="#3" y="6.513"/><use xlink:href="#6" y="8.684"/><use xlink:href="#8" y="10.855"/><use xlink:href="#9" y="13.026"/><use xlink:href="#16" y="15.197"/><use xlink:href="#21" y="17.368"/><use xlink:href="#23" y="19.539"/></svg><svg x="7910"><use xlink:href="#a"/><use xlink:href="#b" x="-.004" y="23.856"/><use xlink:href="#1"/><use xlink:href="#2" y="2.171"/><use xlink:href="#3" y="6.513"/><use xlink:href="#6" y="8.684"/><use xlink:href="#8" y="10.855"/><use xlink:href="#9" y="13.026"/><use xlink:href="#16" y="15.197"/><use xlink:href="#21" y="17.368"/><use xlink:href="#23" y="19.539"/><use xlink:href="#27" y="21.71"/></svg><svg x="8023"><use xlink:href="#a"/><use xlink:href="#b" x="18.996" y="23.856"/><use xlink:href="#1"/><use xlink:href="#2" y="2.171"/><use xlink:href="#3" y="6.513"/><use xlink:href="#6" y="8.684"/><use xlink:href="#8" y="10.855"/><use xlink:href="#9" y="13.026"/><use xlink:href="#16" y="15.197"/><use xlink:href="#21" y="17.368"/><use xlink:href="#23" y="19.539"/><use xlink:href="#27" y="21.71"/><use xlink:href="#28" y="23.881"/></svg><svg x="8136"><use xlink:href="#a"/><use xlink:href="#b" x="18.996" y="23.856"/><use xlink:href="#1"/><use xlink:href="#2" y="2.171"/><use xlink:href="#3" y="6.513"/><use xlink:href="#6" y="8.684"/><use xlink:href="#8" y="10.855"/><use xlink:href="#9" y="13.026"/><use xlink:href="#16" y="15.197"/><use xlink:href="#21" y="17.368"/><use xlink:href="#23" y="19.539"/><use xlink:href="#27" y="21.71"/><use xlink:href="#28" y="23.881"/></svg><svg x="8249"><use xlink:href="#a"/><use xlink:href="#b" x="-.004" y="23.856"/><use xlink:href="#1"/><use xlink:href="#2" y="2.171"/><use xlink:href="#3" y="6.513"/><use xlink:href="#6" y="8.684"/><use xlink:href="#8" y="10.855"/><use xlink:href="#9" y="13.026"/><use xlink:href="#16" y="15.197"/><use xlink:href="#21" y="17.368"/><use xlink:href="#23" y="19.539"/><use xlink:href="#27" y="21.71"/></svg><svg x="8362"><use xlink:href="#a"/><use xlink:href="#b" x="-.004" y="26.027"/><use xlink:href="#1"/><use xlink:href="#2" y="2.171"/><use xlink:href="#3" y="6.513"/><use xlink:href="#6" y="8.684"/><use xlink:href="#8" y="10.855"/><use xlink:href="#9" y="13.026"/><use xlink:href="#16" y="15.197"/><use xlink:href="#21" y="17.368"/><use xlink:href="#23" y="19.539"/><use xlink:href="#27" y="21.71"/><use xlink:href="#29" y="23.881"/></svg><svg x="8475"><use xlink:href="#a"/><use xlink:href="#b" x="33.996" y="26.027"/><use xlink:href="#1"/><use xlink:href="#2" y="2.171"/><use xlink:href="#3" y="6.513"/><use xlink:href="#6" y="8.684"/><use xlink:href="#8" y="10.855"/><use xlink:href="#9" y="13.026"/><use xlink:href="#16" y="15.197"/><use xlink:href="#21" y="17.368"/><use xlink:href="#23" y="19.539"/><use xlink:href="#27" y="21.71"/><use xlink:href="#29" y="23.881"/><text y="27.722" class="g">?</text><text x="2.004" y="27.722" class="m">Trim</text><text x="7.014" y="27.722" class="m">trailing</text><text x="16.032" y="27.722" class="m">whitespace:</text><text x="28.056" y="27.722" class="f">(Y/n)</text></svg><svg x="8588"><use xlink:href="#a"/><use xlink:href="#b" x="-.004" y="26.027"/><use xlink:href="#1"/><use xlink:href="#2" y="2.171"/><use xlink:href="#3" y="6.513"/><use xlink:href="#6" y="8.684"/><use xlink:href="#8" y="10.855"/><use xlink:href="#9" y="13.026"/><use xlink:href="#16" y="15.197"/><use xlink:href="#21" y="17.368"/><use xlink:href="#23" y="19.539"/><use xlink:href="#27" y="21.71"/><use xlink:href="#29" y="23.881"/></svg><svg x="8701"><use xlink:href="#a"/><use xlink:href="#b" x="30.996" y="26.027"/><use xlink:href="#1"/><use xlink:href="#2" y="2.171"/><use xlink:href="#3" y="6.513"/><use xlink:href="#6" y="8.684"/><use xlink:href="#8" y="10.855"/><use xlink:href="#9" y="13.026"/><use xlink:href="#16" y="15.197"/><use xlink:href="#21" y="17.368"/><use xlink:href="#23" y="19.539"/><use xlink:href="#27" y="21.71"/><use xlink:href="#29" y="23.881"/><use xlink:href="#30" y="26.052"/></svg><svg x="8814"><use xlink:href="#a"/><use xlink:href="#b" x="-.004" y="28.198"/><use xlink:href="#1"/><use xlink:href="#2" y="2.171"/><use xlink:href="#3" y="6.513"/><use xlink:href="#6" y="8.684"/><use xlink:href="#8" y="10.855"/><use xlink:href="#9" y="13.026"/><use xlink:href="#16" y="15.197"/><use xlink:href="#21" y="17.368"/><use xlink:href="#23" y="19.539"/><use xlink:href="#27" y="21.71"/><use xlink:href="#29" y="23.881"/><use xlink:href="#30" y="26.052"/></svg><svg x="8927"><use xlink:href="#a"/><use xlink:href="#b" x="61.996" y="28.198"/><use xlink:href="#1"/><use xlink:href="#2" y="2.171"/><use xlink:href="#3" y="6.513"/><use xlink:href="#6" y="8.684"/><use xlink:href="#8" y="10.855"/><use xlink:href="#9" y="13.026"/><use xlink:href="#16" y="15.197"/><use xlink:href="#21" y="17.368"/><use xlink:href="#23" y="19.539"/><use xlink:href="#27" y="21.71"/><use xlink:href="#29" y="23.881"/><use xlink:href="#30" y="26.052"/><use xlink:href="#31" y="28.223"/></svg><svg x="9040"><use xlink:href="#a"/><use xlink:href="#b" x="61.996" y="28.198"/><use xlink:href="#1"/><use xlink:href="#2" y="2.171"/><use xlink:href="#3" y="6.513"/><use xlink:href="#6" y="8.684"/><use xlink:href="#8" y="10.855"/><use xlink:href="#9" y="13.026"/><use xlink:href="#16" y="15.197"/><use xlink:href="#21" y="17.368"/><use xlink:href="#23" y="19.539"/><use xlink:href="#27" y="21.71"/><use xlink:href="#29" y="23.881"/><use xlink:href="#30" y="26.052"/><use xlink:href="#31" y="28.223"/></svg><svg x="9153"><use xlink:href="#a"/><use xlink:href="#b" x="-.004" y="28.198"/><use xlink:href="#1"/><use xlink:href="#2" y="2.171"/><use xlink:href="#3" y="6.513"/><use xlink:href="#6" y="8.684"/><use xlink:href="#8" y="10.855"/><use xlink:href="#9" y="13.026"/><use xlink:href="#16" y="15.197"/><use xlink:href="#21" y="17.368"/><use xlink:href="#23" y="19.539"/><use xlink:href="#27" y="21.71"/><use xlink:href="#29" y="23.881"/><use xlink:href="#30" y="26.052"/></svg><svg x="9266"><use xlink:href="#a"/><use xlink:href="#b" x="-.004" y="30.369"/><use xlink:href="#1"/><use xlink:href="#2" y="2.171"/><use xlink:href="#3" y="6.513"/><use xlink:href="#6" y="8.684"/><use xlink:href="#8" y="10.855"/><use xlink:href="#9" y="13.026"/><use xlink:href="#16" y="15.197"/><use xlink:href="#21" y="17.368"/><use xlink:href="#23" y="19.539"/><use xlink:href="#27" y="21.71"/><use xlink:href="#29" y="23.881"/><use xlink:href="#30" y="26.052"/><use xlink:href="#32" y="28.223"/></svg><svg x="9379"><use xlink:href="#a"/><use xlink:href="#b" x="-.004" y="34.711"/><use xlink:href="#1"/><use xlink:href="#2" y="2.171"/><use xlink:href="#3" y="6.513"/><use xlink:href="#6" y="8.684"/><use xlink:href="#8" y="10.855"/><use xlink:href="#9" y="13.026"/><use xlink:href="#16" y="15.197"/><use xlink:href="#21" y="17.368"/><use xlink:href="#23" y="19.539"/><use xlink:href="#27" y="21.71"/><use xlink:href="#29" y="23.881"/><use xlink:href="#30" y="26.052"/><use xlink:href="#32" y="28.223"/><use xlink:href="#33" y="32.565"/></svg><svg x="9492"><use xlink:href="#a"/><use xlink:href="#b" x="-.004" y="34.711"/><use xlink:href="#1"/><use xlink:href="#2" y="2.171"/><use xlink:href="#3" y="6.513"/><use xlink:href="#6" y="8.684"/><use xlink:href="#8" y="10.855"/><use xlink:href="#9" y="13.026"/><use xlink:href="#16" y="15.197"/><use xlink:href="#21" y="17.368"/><use xlink:href="#23" y="19.539"/><use xlink:href="#27" y="21.71"/><use xlink:href="#29" y="23.881"/><use xlink:href="#30" y="26.052"/><use xlink:href="#32" y="28.223"/><use xlink:href="#33" y="32.565"/></svg><svg x="9605"><use xlink:href="#a"/><use xlink:href="#b" x="-.004" y="34.711"/><use xlink:href="#1"/><use xlink:href="#2" y="2.171"/><use xlink:href="#3" y="6.513"/><use xlink:href="#6" y="8.684"/><use xlink:href="#8" y="10.855"/><use xlink:href="#9" y="13.026"/><use xlink:href="#16" y="15.197"/><use xlink:href="#21" y="17.368"/><use xlink:href="#23" y="19.539"/><use xlink:href="#27" y="21.71"/><use xlink:href="#29" y="23.881"/><use xlink:href="#30" y="26.052"/><use xlink:href="#32" y="28.223"/><use xlink:href="#33" y="32.565"/></svg><svg x="9718"><use xlink:href="#a"/><use xlink:href="#b" x="-.004" y="34.711"/><use xlink:href="#1"/><use xlink:href="#2" y="2.171"/><use xlink:href="#3" y="6.513"/><use xlink:href="#6" y="8.684"/><use xlink:href="#8" y="10.855"/><use xlink:href="#9" y="13.026"/><use xlink:href="#16" y="15.197"/><use xlink:href="#21" y="17.368"/><use xlink:href="#23" y="19.539"/><use xlink:href="#27" y="21.71"/><use xlink:href="#29" y="23.881"/><use xlink:href="#30" y="26.052"/><use xlink:href="#32" y="28.223"/><use xlink:href="#33" y="32.565"/></svg><svg x="9831"><use xlink:href="#a"/><use xlink:href="#b" x="-.004" y="34.711"/><use xlink:href="#1"/><use xlink:href="#2" y="2.171"/><use xlink:href="#3" y="6.513"/><use xlink:href="#6" y="8.684"/><use xlink:href="#8" y="10.855"/><use xlink:href="#9" y="13.026"/><use xlink:href="#16" y="15.197"/><use xlink:href="#21" y="17.368"/><use xlink:href="#23" y="19.539"/><use xlink:href="#27" y="21.71"/><use xlink:href="#29" y="23.881"/><use xlink:href="#30" y="26.052"/><use xlink:href="#32" y="28.223"/><use xlink:href="#33" y="32.565"/></svg><svg x="9944"><use xlink:href="#a"/><use xlink:href="#b" x="-.004" y="34.711"/><use xlink:href="#1"/><use xlink:href="#2" y="2.171"/><use xlink:href="#3" y="6.513"/><use xlink:href="#6" y="8.684"/><use xlink:href="#8" y="10.855"/><use xlink:href="#9" y="13.026"/><use xlink:href="#16" y="15.197"/><use xlink:href="#21" y="17.368"/><use xlink:href="#23" y="19.539"/><use xlink:href="#27" y="21.71"/><use xlink:href="#29" y="23.881"/><use xlink:href="#30" y="26.052"/><use xlink:href="#32" y="28.223"/><use xlink:href="#33" y="32.565"/></svg><svg x="10057"><use xlink:href="#a"/><use xlink:href="#b" x="1.996" y="39.053"/><use xlink:href="#1"/><use xlink:href="#2" y="2.171"/><use xlink:href="#3" y="6.513"/><use xlink:href="#6" y="8.684"/><use xlink:href="#8" y="10.855"/><use xlink:href="#9" y="13.026"/><use xlink:href="#16" y="15.197"/><use xlink:href="#21" y="17.368"/><use xlink:href="#23" y="19.539"/><use xlink:href="#27" y="21.71"/><use xlink:href="#29" y="23.881"/><use xlink:href="#30" y="26.052"/><use xlink:href="#32" y="28.223"/><use xlink:href="#33" y="32.565"/><use xlink:href="#34" y="36.907"/><use xlink:href="#4" y="39.078"/></svg><svg x="10170"><use xlink:href="#a"/><use xlink:href="#b" x="-.004" y="41.224"/><use xlink:href="#1"/><use xlink:href="#2" y="2.171"/><use xlink:href="#3" y="6.513"/><use xlink:href="#6" y="8.684"/><use xlink:href="#8" y="10.855"/><use xlink:href="#9" y="13.026"/><use xlink:href="#16" y="15.197"/><use xlink:href="#21" y="17.368"/><use xlink:href="#23" y="19.539"/><use xlink:href="#27" y="21.71"/><use xlink:href="#29" y="23.881"/><use xlink:href="#30" y="26.052"/><use xlink:href="#32" y="28.223"/><use xlink:href="#33" y="32.565"/><use xlink:href="#34" y="36.907"/><use xlink:href="#4" y="39.078"/></svg></svg></g></g></svg></svg>